HIERARCHY
ROOT hip
{
	OFFSET 0.000000 0.000000 0.000000 
	CHANNELS 6 Xposition Yposition Zposition Xrotation Zrotation Yrotation
	JOINT abdomen
	{
		OFFSET 0.000000 3.402643 0.000000 
		CHANNELS 3 Xrotation Zrotation Yrotation
		JOINT chest
		{
			OFFSET 0.000000 8.438565 -0.680529 
			CHANNELS 3 Xrotation Zrotation Yrotation
			JOINT neck
			{
				OFFSET 0.000000 10.207942 -0.272212 
				CHANNELS 3 Xrotation Zrotation Yrotation
				JOINT head
				{
					OFFSET 0.000000 3.130431 0.000000 
					CHANNELS 3 Xrotation Zrotation Yrotation
					End Site
					{
						OFFSET 0.000000 3.130435 0.000000 
					}
				}
			}
			JOINT lCollar
			{
				OFFSET 3.470700 6.669187 -0.816635 
				CHANNELS 3 Yrotation Zrotation Xrotation
				JOINT lShldr
				{
					OFFSET 3.198488 0.000000 0.000000 
					CHANNELS 3 Zrotation Yrotation Xrotation
					JOINT lForeArm
					{
						OFFSET 10.139888 0.000000 0.000000 
						CHANNELS 3 Yrotation Zrotation Xrotation
						JOINT lHand
						{
							OFFSET 8.370511 0.000000 0.000000 
							CHANNELS 3 Zrotation Yrotation Xrotation
							End Site
							{
								OFFSET 4.083176 0.000000 0.000000 
							}
						}
					}
				}
			}
			JOINT rCollar
			{
				OFFSET -3.470700 6.669187 -0.816635 
				CHANNELS 3 Yrotation Zrotation Xrotation
				JOINT rShldr
				{
					OFFSET -3.198488 0.000000 0.000000 
					CHANNELS 3 Zrotation Yrotation Xrotation
					JOINT rForeArm
					{
						OFFSET -10.139888 0.000000 0.000000 
						CHANNELS 3 Yrotation Zrotation Xrotation
						JOINT rHand
						{
							OFFSET -8.370511 0.000000 0.000000 
							CHANNELS 3 Zrotation Yrotation Xrotation
							End Site
							{
								OFFSET -4.083176 0.000000 0.000000 
							}
						}
					}
				}
			}
		}
	}
	JOINT lThigh
	{
		OFFSET 5.308129 -1.633274 1.361059 
		CHANNELS 3 Xrotation Zrotation Yrotation
		JOINT lShin
		{
			OFFSET -2.041588 -20.007561 0.000000 
			CHANNELS 3 Xrotation Zrotation Yrotation
			JOINT lFoot
			{
				OFFSET 0.000000 -19.190928 -1.224953 
				CHANNELS 3 Xrotation Yrotation Zrotation
				End Site
				{
					OFFSET 0.000000 -2.449906 4.627600 
				}
			}
		}
	}
	JOINT rThigh
	{
		OFFSET -5.308129 -1.633274 1.361059 
		CHANNELS 3 Xrotation Zrotation Yrotation
		JOINT rShin
		{
			OFFSET 2.041588 -20.007561 0.000000 
			CHANNELS 3 Xrotation Zrotation Yrotation
			JOINT rFoot
			{
				OFFSET 0.000000 -19.190928 -1.224953 
				CHANNELS 3 Xrotation Yrotation Zrotation
				End Site
				{
					OFFSET 0.000000 -2.449906 4.627600 
				}
			}
		}
	}
}
MOTION
Frames: 14
Frame Time: 0.016667
47.213425 52.246471 -93.987015 -10.429688 5.185547 -166.894531 16.494139 -5.986328 3.251953 -8.837890 -0.859375 0.497900 51.064453 8.115234 2.472081 -20.527344 9.326172 -11.424199 9.365234 29.999998 -0.976562 -118.046867 22.500000 -1.431808 -53.730473 -1.542969 -2.050781 19.414063 61.123047 15.125737 -3.066406 -30.000000 2.597656 109.492188 -27.167971 10.942808 60.751949 1.435547 -2.363281 -28.154297 -60.517578 27.304686 -15.319345 11.734899 12.281841 25.477432 -4.701477 -2.371604 -14.750505 3.146251 -0.106992 -14.300714 -3.276537 -23.420115 23.928276 4.783775 1.745654 -5.389804 -21.482944 12.433025 
47.752090 52.230713 -94.208138 -10.244141 5.000000 -167.020630 16.494139 -5.986328 3.251953 -8.662109 -0.859375 0.497900 51.064453 8.115234 2.472081 -21.201172 8.662109 -10.906733 9.365234 29.999998 -0.976562 -117.656250 22.441406 -1.210937 -53.564453 -1.718750 -2.109375 19.580078 61.103516 15.419922 -3.066406 -30.000000 2.597656 109.521484 -26.787109 10.693358 60.751949 1.435547 -2.353515 -28.583984 -60.136723 27.529297 -15.341969 12.285364 11.872258 25.869057 -4.795155 -2.413711 -14.790327 3.564068 -0.442348 -13.707546 -2.517374 -24.001818 23.038799 4.748413 1.928243 -6.119646 -21.492609 11.427533 
48.289013 52.214951 -94.421989 -10.058594 5.009766 -167.177734 16.503906 -6.152344 3.203125 -8.662109 -0.859375 0.497900 51.064453 8.115234 2.472081 -21.855471 7.978516 -10.185547 9.160156 29.999998 -0.917969 -117.685555 22.626951 -1.406250 -53.564453 -1.718750 -2.109375 19.580078 61.103516 15.419922 -3.066406 -30.000000 2.607422 109.541016 -26.591797 10.464379 60.927734 1.425781 -2.363281 -28.388672 -59.970707 27.255859 -15.228363 13.029517 11.672723 26.026577 -4.677827 -2.441603 -14.311141 3.553797 -0.737148 -13.130788 -1.628172 -23.891533 22.510489 4.822314 1.441327 -6.793964 -21.608913 11.191912 
48.790077 52.175556 -94.578308 -9.892579 5.019532 -167.519531 16.669922 -5.976563 3.231405 -8.671875 -1.025391 0.458810 51.064453 8.115234 2.472081 -22.734375 7.021484 -9.638674 9.365234 29.999998 -0.976562 -117.685555 22.626951 -1.406250 -53.378910 -1.552734 -2.031250 19.414063 61.308598 15.076925 -3.066406 -30.000000 2.607422 109.541016 -26.406248 10.474174 61.103516 1.572266 -2.421875 -28.515623 -59.931644 27.345066 -15.106668 13.651285 12.109714 26.550493 -4.659268 -2.625948 -14.626640 3.557840 -0.681588 -12.658798 -0.894033 -24.442053 21.967508 4.817142 1.813344 -7.869904 -21.190006 10.119664 
49.230263 52.159813 -94.669853 -9.716797 5.009766 -167.851563 16.845703 -5.869141 3.436502 -8.662110 -1.201172 0.429688 51.064453 8.115234 2.472081 -23.779299 6.064453 -9.072266 9.404296 29.999998 -1.025391 -118.261719 22.529297 -2.617188 -53.388672 -1.679688 -2.080078 19.833984 61.230469 15.604262 -3.251953 -30.000000 2.587891 109.531250 -26.220703 10.810547 61.279297 1.416016 -2.373047 -28.574219 -60.136723 27.529297 -15.415893 14.291322 11.852942 26.740314 -4.751037 -2.477401 -13.957278 3.922909 -0.980694 -12.209146 -0.200809 -24.170597 21.277063 4.882380 1.339367 -8.170554 -21.186213 9.865680 
49.649166 52.112537 -94.743225 -9.716797 5.009766 -168.027344 17.011719 -5.693359 3.466797 -8.837890 -1.376953 0.400158 51.064453 8.115234 2.472081 -24.980465 5.107422 -8.495225 9.433594 29.999998 -1.064453 -118.457039 22.373047 -2.929688 -53.378906 -1.376953 -1.982196 19.482422 61.494141 15.146485 -3.251953 -30.000000 2.587891 109.531250 -26.025391 10.820313 61.455078 1.552734 -2.431640 -28.134768 -60.097660 27.294926 -15.691566 14.938808 11.771947 26.901121 -4.732186 -2.515414 -13.761912 4.182008 -1.245392 -12.064821 0.393148 -24.861345 20.921408 4.855690 1.918503 -8.577382 -20.849649 9.350751 
50.086575 52.081032 -94.792274 -9.716797 5.009766 -168.378906 17.363281 -5.351563 3.553833 -8.837890 -1.552734 0.361064 51.064453 8.115234 2.472081 -25.976564 4.267578 -7.968750 9.638672 30.000000 -1.123047 -118.662109 22.568359 -3.228674 -53.554691 -1.533203 -2.041015 19.648438 61.474613 15.457801 -3.251953 -30.000000 2.587891 109.501953 -26.093750 10.855083 61.455078 1.406250 -2.373047 -27.851564 -60.175785 26.894533 -15.848962 15.458024 11.529069 26.906071 -4.643610 -2.477348 -13.212897 4.187280 -1.075620 -11.901641 1.065210 -24.560612 20.396269 4.940630 1.402403 -9.041192 -20.736385 9.082267 
50.575134 52.049507 -94.848282 -9.716797 5.009766 -168.730469 17.539064 -5.341797 3.534247 -8.837890 -1.718750 0.331738 51.064453 8.115234 2.472081 -27.128906 3.593750 -7.148438 9.746094 29.999998 -1.347656 -118.691406 22.949219 -3.926021 -53.916016 -1.660156 -2.099609 19.814453 61.269527 15.819111 -3.251953 -30.000000 2.587891 109.501953 -26.093750 10.855083 61.455078 1.406250 -2.373047 -28.193361 -60.332031 27.695313 -16.043188 16.179005 11.755419 27.254900 -4.633509 -2.493505 -12.873811 4.079719 -1.219425 -11.668186 1.787361 -25.147942 20.048410 4.872786 1.712611 -9.444929 -20.652405 8.630880 
51.142952 52.017998 -94.874672 -9.716797 5.009766 -168.906250 17.714844 -5.507813 3.466797 -8.837890 -1.718750 0.331738 51.064453 8.115234 2.472081 -28.251953 3.066406 -6.454556 9.716796 29.999998 -1.308594 -118.359375 23.232422 -3.984375 -54.082031 -1.347656 -2.001953 19.218748 61.425785 15.371093 -3.056641 -30.000000 2.617188 109.697266 -26.123049 10.742187 61.279297 1.416016 -2.373047 -28.261719 -60.283203 27.597654 -16.549627 16.704378 11.830605 27.444597 -4.619869 -2.525935 -12.681205 4.060503 -1.028634 -11.740161 2.688137 -25.032295 19.505072 4.871205 1.677852 -9.632771 -20.682760 7.953387 
51.700016 52.010117 -94.899094 -9.892578 5.195313 -169.129974 17.890625 -5.498047 3.446330 -8.828125 -1.894531 0.292969 51.064453 8.115234 2.472081 -29.355471 2.695313 -5.810547 9.931640 29.999998 -1.367188 -118.349609 23.251955 -4.472656 -54.091801 -1.650391 -2.099609 19.921873 61.035156 15.800780 -3.056641 -30.000000 2.617188 109.892578 -26.162111 10.630461 61.279297 1.416016 -2.373047 -28.085938 -60.146481 27.568357 -16.910635 17.602171 11.306382 27.632401 -4.624688 -2.532569 -12.246494 4.431049 -1.050845 -12.056294 3.369986 -24.728638 19.515070 4.939900 1.193076 -9.573511 -21.018291 7.525229 
52.247593 51.954983 -94.908119 -10.244141 5.361329 -169.364319 18.076172 -5.664063 3.377942 -9.003906 -1.894531 0.312500 51.064453 8.115234 2.472081 -30.263670 2.460938 -5.273018 9.931640 29.999998 -1.367188 -118.154297 23.046875 -4.546956 -54.082031 -1.347656 -2.001953 19.521484 60.917965 15.340566 -3.066406 -30.000000 2.607422 109.736328 -26.064453 10.859375 61.103516 1.425781 -2.363281 -28.085938 -60.146481 27.568357 -17.469337 18.357260 11.337093 27.799328 -4.703028 -2.544628 -11.995535 4.740098 -1.034826 -12.130322 4.064116 -24.776110 18.975605 4.958721 1.151319 -9.767260 -21.553225 6.899419 
52.769711 51.931335 -94.915749 -10.429687 5.351563 -169.569397 18.261719 -5.820313 3.310547 -9.003906 -1.894531 0.312500 51.064453 8.115234 2.472081 -31.328125 2.402344 -4.872637 9.931640 29.999998 -1.367188 -118.330078 22.910156 -4.781353 -53.906250 -1.357422 -2.001961 19.541016 60.878902 15.115953 -3.066406 -30.000000 2.607422 109.707031 -26.259764 11.083984 61.103516 1.425781 -2.363281 -27.832031 -60.000000 27.158203 -17.857088 19.104717 11.210251 27.799330 -4.703036 -2.544630 -11.377228 5.028015 -0.948275 -12.507415 4.961298 -24.850986 18.988003 4.949590 1.150763 -9.433287 -21.567564 6.561319 
53.287777 51.907707 -94.911942 -10.791015 5.507813 -169.813522 18.437502 -5.986328 3.241169 -9.003906 -2.070312 0.273438 51.064453 8.115234 2.472081 -32.207031 2.500000 -4.560547 9.931640 29.999998 -1.367188 -118.144531 22.880859 -5.045032 -54.091801 -1.640625 -2.099620 19.794920 60.673828 15.654299 -3.066406 -30.000000 2.597656 109.697266 -26.259766 11.289062 60.927734 1.425781 -2.363281 -27.832031 -60.000000 27.158203 -18.485153 19.763704 11.384750 27.973196 -4.595391 -2.563700 -10.779268 4.823414 -0.565758 -12.925541 5.712616 -25.260244 18.632010 4.912672 1.776964 -9.424366 -21.880899 5.914531 
53.792072 51.884068 -94.901405 -11.142578 5.673828 -170.039063 18.789063 -5.966796 3.202110 -9.003906 -2.070312 0.273438 51.064453 8.115234 2.472081 -33.046875 2.919922 -4.316369 9.716796 29.999998 -1.308594 -117.958977 22.851563 -4.947379 -54.257809 -1.347656 -2.011489 19.267580 60.976563 15.125724 -3.066406 -30.000000 2.597656 109.892578 -26.474609 11.011272 60.927734 1.425781 -2.363281 -27.832031 -60.000000 27.158203 -18.866726 20.506971 11.228548 27.973524 -4.595429 -2.553996 -10.529403 4.875258 -0.333923 -13.266897 6.191037 -24.957354 18.477013 5.010680 1.419042 -9.068089 -21.998764 5.716322 
